<svg xmlns="http://www.w3.org/2000/svg" viewBox="0 0 512 512">
  <defs>
    <linearGradient id="g" x1="0" y1="0" x2="1" y2="1">
      <stop offset="0" stop-color="#0d6b6b"/>
      <stop offset="1" stop-color="#0a8f8f"/>
    </linearGradient>
  </defs>
  <rect width="512" height="512" rx="96" fill="url(#g)"/>
  <g fill="#ffffff">
    <path d="M256 96c-44 0-80 36-80 80v96c0 53 43 96 96 96s96-43 96-96v-96c0-44-36-80-80-80h-8c-13 0-24 11-24 24s11 24 24 24h8c18 0 32 14 32 32v96c0 26-22 48-48 48s-48-22-48-48v-96c0-18 14-32 32-32 13 0 24-11 24-24s-11-24-24-24z"/>
    <circle cx="368" cy="368" r="56"/>
    <circle cx="368" cy="368" r="20" fill="#0d6b6b"/>
    <path d="M256 360c0 31 25 56 56 56" stroke="#ffffff" stroke-width="16" fill="none" stroke-linecap="round"/>
  </g>
</svg>
